<?xml version="1.0" encoding="UTF-8"?><svg xmlns="http://www.w3.org/2000/svg" xmlns:xlink="http://www.w3.org/1999/xlink" width="375pt" zoomAndPan="magnify" viewBox="0 0 375 374.999991" height="374.999991pt" preserveAspectRatio="xMidYMid meet" version="1.2"><defs><clipPath xml:id="clip1" id="clip1"><path d="M 59.589844 149 L 318.65625 149 L 318.65625 353.546875 L 59.589844 353.546875 Z M 59.589844 149 "/></clipPath><clipPath xml:id="clip2" id="clip2"><path d="M 288.5625 112.636719 L 372.914062 112.636719 L 372.914062 227.753906 L 288.5625 227.753906 Z M 288.5625 112.636719 "/></clipPath></defs><g xml:id="surface1" id="surface1"><g clip-rule="nonzero" clip-path="url(#clip1)"><path style=" stroke:none;fill-rule:nonzero;fill:rgb(83.139038%,77.648926%,69.799805%);fill-opacity:1;" d="M 59.78125 294.917969 C 60.523438 313.484375 69.726562 330.472656 85.039062 341.515625 C 100.933594 352.984375 120.824219 356.460938 139.613281 351.050781 L 146.875 348.960938 C 160.648438 345 174.816406 343.015625 188.984375 343.015625 C 203.152344 343.015625 217.320312 344.996094 231.09375 348.960938 L 238.347656 351.050781 C 257.144531 356.460938 277.035156 352.984375 292.929688 341.515625 C 308.238281 330.472656 317.445312 313.484375 318.183594 294.917969 C 318.796875 279.546875 313.8125 264.953125 303.777344 252.71875 L 237.886719 172.390625 C 225.828125 157.6875 208.003906 149.257812 188.984375 149.257812 C 169.964844 149.257812 152.140625 157.6875 140.078125 172.390625 L 74.191406 252.71875 C 64.152344 264.953125 59.167969 279.546875 59.78125 294.917969 "/></g><path style=" stroke:none;fill-rule:nonzero;fill:rgb(83.139038%,77.648926%,69.799805%);fill-opacity:1;" d="M 56.625 227.039062 C 79.246094 223.28125 93.402344 194.683594 88.183594 163.292969 C 85.621094 147.882812 78.824219 134.167969 69.042969 124.675781 C 61.023438 116.890625 51.8125 112.765625 42.660156 112.765625 C 41 112.765625 39.34375 112.902344 37.695312 113.175781 C 15.074219 116.933594 0.914062 145.527344 6.132812 176.917969 C 11.355469 208.308594 34 230.785156 56.625 227.039062 "/><path style=" stroke:none;fill-rule:nonzero;fill:rgb(83.139038%,77.648926%,69.799805%);fill-opacity:1;" d="M 139.566406 137.167969 C 162.1875 133.410156 176.34375 104.816406 171.128906 73.421875 C 168.566406 58.011719 161.769531 44.300781 151.988281 34.804688 C 143.96875 27.019531 134.757812 22.898438 125.605469 22.898438 C 123.945312 22.898438 122.285156 23.03125 120.640625 23.304688 C 98.015625 27.0625 83.859375 55.65625 89.078125 87.046875 C 94.296875 118.441406 116.941406 140.917969 139.566406 137.167969 "/><g clip-rule="nonzero" clip-path="url(#clip2)"><path style=" stroke:none;fill-rule:nonzero;fill:rgb(83.139038%,77.648926%,69.799805%);fill-opacity:1;" d="M 321.34375 227.039062 C 343.960938 230.789062 366.613281 208.308594 371.832031 176.917969 C 377.050781 145.527344 362.894531 116.933594 340.273438 113.175781 C 329.527344 111.390625 318.394531 115.476562 308.921875 124.675781 C 299.140625 134.167969 292.34375 147.882812 289.78125 163.292969 C 284.5625 194.683594 298.71875 223.28125 321.34375 227.039062 "/></g><path style=" stroke:none;fill-rule:nonzero;fill:rgb(83.139038%,77.648926%,69.799805%);fill-opacity:1;" d="M 238.402344 137.167969 C 261.015625 140.921875 283.671875 118.441406 288.890625 87.046875 C 294.105469 55.65625 279.949219 27.0625 257.328125 23.304688 C 246.585938 21.527344 235.453125 25.605469 225.976562 34.804688 C 216.199219 44.300781 209.402344 58.011719 206.835938 73.421875 C 201.617188 104.816406 215.78125 133.410156 238.402344 137.167969 "/></g></svg>